<svg xmlns="http://www.w3.org/2000/svg" width="48" height="48" fill="none" viewBox="0 0 48 48">
  <path fill="#EAEAEA" fill-rule="evenodd" d="M16.368 30.718a1 1 0 0 1 0-1.415l1.788-1.787a20.948 20.948 0 0 1-2.657-2.558 1.458 1.458 0 0 1 0-1.916 20.595 20.595 0 0 1 3.1-2.9C20.046 19.061 21.964 18 24 18c1.04 0 2.049.277 2.98.692l2.823-2.824a1 1 0 1 1 1.415 1.414l-2.426 2.426-1.446 1.446-1.704 1.704a2 2 0 0 1-2.784 2.784l-1.572 1.572-1.467 1.467-2.037 2.037a1 1 0 0 1-1.414 0Zm7.271-8.686a2.002 2.002 0 0 0-1.607 1.607l-2.452 2.453A18.651 18.651 0 0 1 17.324 24a18.382 18.382 0 0 1 2.471-2.256C21.132 20.746 22.617 20 24 20c.47 0 .95.086 1.433.238l-1.794 1.794Zm-.776 6.433c-.521.522-.31 1.406.422 1.492.236.028.475.043.715.043 2.036 0 3.954-1.061 5.401-2.141a20.595 20.595 0 0 0 3.1-2.901 1.458 1.458 0 0 0 0-1.916 21.12 21.12 0 0 0-1.424-1.483.96.96 0 0 0-1.34.033c-.412.412-.383 1.086.037 1.488.36.344.665.662.902.92a18.375 18.375 0 0 1-2.471 2.256C26.868 27.254 25.383 28 24 28c-.04 0-.081 0-.122-.002-.317-.01-.634.086-.858.31l-.157.157Z" clip-rule="evenodd"/>
</svg>
