<svg xmlns="http://www.w3.org/2000/svg" width="48" height="48" fill="none" viewBox="0 0 48 48">
  <path fill="#EAEAEA" fill-rule="evenodd" d="M19.795 26.256A18.382 18.382 0 0 1 17.325 24a18.382 18.382 0 0 1 2.47-2.256C21.132 20.746 22.617 20 24 20s2.868.746 4.205 1.744A18.382 18.382 0 0 1 30.675 24a18.382 18.382 0 0 1-2.47 2.256C26.868 27.254 25.383 28 24 28s-2.868-.746-4.205-1.744ZM24 18c-2.036 0-3.954 1.061-5.401 2.141a20.595 20.595 0 0 0-3.1 2.901 1.458 1.458 0 0 0 0 1.916 20.595 20.595 0 0 0 3.1 2.9C20.046 28.939 21.964 30 24 30c2.036 0 3.954-1.061 5.401-2.141a20.595 20.595 0 0 0 3.1-2.901 1.458 1.458 0 0 0 0-1.916 20.595 20.595 0 0 0-3.1-2.9C27.954 19.061 26.036 18 24 18Zm0 8a2 2 0 1 0 0-4 2 2 0 0 0 0 4Z" clip-rule="evenodd"/>
</svg>
