<svg xmlns="http://www.w3.org/2000/svg" width="360" height="73" fill="none" viewBox="0 0 360 73">
  <path fill="#87FF73" d="M71 3h100v11H71zm97 31h91v9h-91zm115-6h9v9h-9z"/>
  <path fill="#E4E8E3" d="M79.63 12h6.96l1.2 15.78v3.06h.72v-3.06L89.71 12h6.96v21h-3.6V18.96l.36-4.8h-.72L91.15 33h-5.94l-1.62-18.84h-.72l.36 4.8V33h-3.6V12Zm30.129 6.12h3.78v18.54c0 .68-.22 1.24-.66 1.68-.42.44-.97.66-1.65.66h-8.85v-3.6h6.57c.54 0 .81-.3.81-.9v-3.66h-.54c-.66 1.72-2.08 2.58-4.26 2.58-.74 0-1.43-.12-2.07-.36-.64-.24-1.2-.61-1.68-1.11-.48-.5-.86-1.12-1.14-1.86-.26-.76-.39-1.65-.39-2.67v-9.3h3.78v8.52c0 1.06.25 1.89.75 2.49.5.58 1.25.87 2.25.87 1.14 0 1.97-.36 2.49-1.08.54-.74.81-1.74.81-3v-7.8ZM136.537 12h13.26v3.78h-9.3v4.8h8.94v3.78h-8.94v4.86h9.66V33h-13.62V12Zm28.119 6.12h4.17l-3.6 6.99v.54l3.81 7.35h-4.35l-2.79-5.82h-.54l-2.79 5.82h-4.35l3.81-7.35v-.54l-3.63-6.99h4.2l2.76 5.46h.54l2.76-5.46ZM176.155 39h-3.78V18.12h3.78v2.16h.54c.4-.82.98-1.45 1.74-1.89.76-.46 1.73-.69 2.91-.69.88 0 1.71.17 2.49.51.8.34 1.49.84 2.07 1.5.6.64 1.07 1.43 1.41 2.37.36.94.54 2.01.54 3.21v.54c0 1.22-.17 2.3-.51 3.24-.34.94-.8 1.74-1.38 2.4-.58.64-1.27 1.13-2.07 1.47-.78.32-1.63.48-2.55.48-.68 0-1.27-.07-1.77-.21-.5-.14-.94-.33-1.32-.57a4.59 4.59 0 0 1-.93-.81c-.24-.32-.45-.65-.63-.99h-.54V39Zm3.96-9.18c1.18 0 2.13-.36 2.85-1.08.74-.74 1.11-1.74 1.11-3v-.36c0-1.26-.37-2.25-1.11-2.97-.72-.74-1.67-1.11-2.85-1.11-1.18 0-2.14.38-2.88 1.14-.72.74-1.08 1.72-1.08 2.94v.36c0 1.22.36 2.21 1.08 2.97.74.74 1.7 1.11 2.88 1.11Zm14.74-3.03c.02.44.12.85.3 1.23.2.36.46.68.78.96.34.26.72.47 1.14.63.44.14.9.21 1.38.21.94 0 1.66-.16 2.16-.48.5-.34.86-.74 1.08-1.2l3.24 1.8c-.18.38-.43.78-.75 1.2-.32.4-.74.77-1.26 1.11-.5.34-1.12.62-1.86.84-.72.22-1.57.33-2.55.33-1.12 0-2.14-.18-3.06-.54-.92-.36-1.72-.88-2.4-1.56-.66-.68-1.18-1.51-1.56-2.49-.36-.98-.54-2.09-.54-3.33v-.18c0-1.14.19-2.18.57-3.12.4-.94.94-1.74 1.62-2.4.68-.66 1.47-1.17 2.37-1.53.92-.38 1.9-.57 2.94-.57 1.28 0 2.38.23 3.3.69.92.44 1.68 1.01 2.28 1.71.6.68 1.04 1.44 1.32 2.28.28.82.42 1.62.42 2.4v2.01h-10.92Zm3.57-5.67c-.96 0-1.74.25-2.34.75-.6.48-.99 1.04-1.17 1.68h7.02c-.12-.7-.5-1.28-1.14-1.74-.62-.46-1.41-.69-2.37-.69ZM213.674 33h-3.78V18.12h3.78v2.22h.54c.34-.84.89-1.49 1.65-1.95.76-.46 1.65-.69 2.67-.69.72 0 1.39.12 2.01.36.64.22 1.2.57 1.68 1.05.48.48.85 1.09 1.11 1.83.28.74.42 1.62.42 2.64V33h-3.78v-8.46c0-1.06-.26-1.89-.78-2.49-.5-.62-1.23-.93-2.19-.93-1.12 0-1.96.38-2.52 1.14-.54.74-.81 1.74-.81 3V33Zm19.329-10.68c0 .48.25.83.75 1.05.5.2 1.41.37 2.73.51 1.52.16 2.76.62 3.72 1.38.96.74 1.44 1.78 1.44 3.12v.18c0 1.48-.54 2.66-1.62 3.54-1.08.88-2.6 1.32-4.56 1.32-1.16 0-2.15-.15-2.97-.45-.82-.3-1.5-.67-2.04-1.11-.54-.46-.96-.96-1.26-1.5a6.3 6.3 0 0 1-.57-1.62l3.48-1.14c.16.64.49 1.2.99 1.68.52.48 1.31.72 2.37.72.94 0 1.58-.14 1.92-.42.36-.3.54-.62.54-.96 0-.2-.05-.38-.15-.54-.08-.18-.24-.34-.48-.48-.24-.16-.57-.29-.99-.39-.4-.1-.91-.18-1.53-.24-1.68-.14-3.02-.57-4.02-1.29-.98-.74-1.47-1.82-1.47-3.24v-.18c0-.74.16-1.39.48-1.95.32-.56.74-1.03 1.26-1.41.52-.4 1.12-.7 1.8-.9.68-.2 1.38-.3 2.1-.3.94 0 1.75.12 2.43.36.7.22 1.29.52 1.77.9.48.36.87.77 1.17 1.23.3.44.53.87.69 1.29l-3.42 1.38a2.39 2.39 0 0 0-.93-1.26c-.44-.32-1.01-.48-1.71-.48-.64 0-1.12.12-1.44.36-.32.22-.48.5-.48.84Zm16.959 4.47c.02.44.12.85.3 1.23.2.36.46.68.78.96.34.26.72.47 1.14.63.44.14.9.21 1.38.21.94 0 1.66-.16 2.16-.48.5-.34.86-.74 1.08-1.2l3.24 1.8c-.18.38-.43.78-.75 1.2-.32.4-.74.77-1.26 1.11-.5.34-1.12.62-1.86.84-.72.22-1.57.33-2.55.33-1.12 0-2.14-.18-3.06-.54-.92-.36-1.72-.88-2.4-1.56-.66-.68-1.18-1.51-1.56-2.49-.36-.98-.54-2.09-.54-3.33v-.18c0-1.14.19-2.18.57-3.12.4-.94.94-1.74 1.62-2.4.68-.66 1.47-1.17 2.37-1.53.92-.38 1.9-.57 2.94-.57 1.28 0 2.38.23 3.3.69.92.44 1.68 1.01 2.28 1.71.6.68 1.04 1.44 1.32 2.28.28.82.42 1.62.42 2.4v2.01h-10.92Zm3.57-5.67c-.96 0-1.74.25-2.34.75-.6.48-.99 1.04-1.17 1.68h7.02c-.12-.7-.5-1.28-1.14-1.74-.62-.46-1.41-.69-2.37-.69Zm16.209 1.2c0 .48.25.83.75 1.05.5.2 1.41.37 2.73.51 1.52.16 2.76.62 3.72 1.38.96.74 1.44 1.78 1.44 3.12v.18c0 1.48-.54 2.66-1.62 3.54-1.08.88-2.6 1.32-4.56 1.32-1.16 0-2.15-.15-2.97-.45-.82-.3-1.5-.67-2.04-1.11-.54-.46-.96-.96-1.26-1.5a6.3 6.3 0 0 1-.57-1.62l3.48-1.14c.16.64.49 1.2.99 1.68.52.48 1.31.72 2.37.72.94 0 1.58-.14 1.92-.42.36-.3.54-.62.54-.96 0-.2-.05-.38-.15-.54-.08-.18-.24-.34-.48-.48-.24-.16-.57-.29-.99-.39-.4-.1-.91-.18-1.53-.24-1.68-.14-3.02-.57-4.02-1.29-.98-.74-1.47-1.82-1.47-3.24v-.18c0-.74.16-1.39.48-1.95.32-.56.74-1.03 1.26-1.41.52-.4 1.12-.7 1.8-.9.68-.2 1.38-.3 2.1-.3.94 0 1.75.12 2.43.36.7.22 1.29.52 1.77.9.48.36.87.77 1.17 1.23.3.44.53.87.69 1.29l-3.42 1.38a2.39 2.39 0 0 0-.93-1.26c-.44-.32-1.01-.48-1.71-.48-.64 0-1.12.12-1.44.36-.32.22-.48.5-.48.84Z"/>
</svg>
